<svg width="1222" height="95" viewBox="0 0 1222 95" fill="none" xmlns="http://www.w3.org/2000/svg">
<rect x="0.106827" y="18" width="1221" height="57" fill="#FFCD68"/>
<path d="M51.1068 18.5L80.6068 18.5L31.857 75.7246L1.91274e-06 75.7246L51.1068 18.5Z" fill="#121111"/>
<path d="M108.214 19.1216L137.714 19.1216L88.9639 76.3462L57.1068 76.3462L108.214 19.1216Z" fill="#121111"/>
<path d="M165.214 18.1216L194.714 18.1216L145.964 75.3462L114.107 75.3462L165.214 18.1216Z" fill="#121111"/>
<path d="M222.214 18.1216L251.714 18.1216L202.964 75.3462L171.107 75.3462L222.214 18.1216Z" fill="#121111"/>
<path d="M279.214 18.1216L308.714 18.1216L259.964 75.3462L228.107 75.3462L279.214 18.1216Z" fill="#121111"/>
<path d="M336.214 18.1216L365.714 18.1216L316.964 75.3462L285.107 75.3462L336.214 18.1216Z" fill="#121111"/>
<path d="M393.214 18.1216L422.714 18.1216L373.964 75.3462L342.107 75.3462L393.214 18.1216Z" fill="#121111"/>
<path d="M450.214 18.1216L479.714 18.1216L430.964 75.3462L399.107 75.3462L450.214 18.1216Z" fill="#121111"/>
<path d="M507.214 18.1216L536.714 18.1216L487.964 75.3462L456.107 75.3462L507.214 18.1216Z" fill="#121111"/>
<path d="M564.214 18.1216L593.714 18.1216L544.964 75.3462L513.107 75.3462L564.214 18.1216Z" fill="#121111"/>
<path d="M621.214 18.1216L650.714 18.1216L601.964 75.3462L570.107 75.3462L621.214 18.1216Z" fill="#121111"/>
<path d="M678.214 18.1216L707.714 18.1216L658.964 75.3462L627.107 75.3462L678.214 18.1216Z" fill="#121111"/>
<path d="M735.214 18.1216L764.714 18.1216L715.964 75.3462L684.107 75.3462L735.214 18.1216Z" fill="#121111"/>
<path d="M792.214 18.1216L821.714 18.1216L772.964 75.3462L741.107 75.3462L792.214 18.1216Z" fill="#121111"/>
<path d="M849.214 18.1216L878.714 18.1216L829.964 75.3462L798.107 75.3462L849.214 18.1216Z" fill="#121111"/>
<path d="M906.214 18.1216L935.714 18.1216L886.964 75.3462L855.107 75.3462L906.214 18.1216Z" fill="#121111"/>
<path d="M963.214 18.1216L992.714 18.1216L943.964 75.3462L912.107 75.3462L963.214 18.1216Z" fill="#121111"/>
<path d="M1020.21 18.1216L1049.71 18.1216L1000.96 75.3462L969.107 75.3462L1020.21 18.1216Z" fill="#121111"/>
<path d="M1077.21 18.1216L1106.71 18.1216L1057.96 75.3462L1026.11 75.3462L1077.21 18.1216Z" fill="#121111"/>
<path d="M1134.21 18.1216L1163.71 18.1216L1114.96 75.3462L1083.11 75.3462L1134.21 18.1216Z" fill="#121111"/>
<path d="M1191.21 18.1216L1220.71 18.1216L1171.96 75.3462L1140.11 75.3462L1191.21 18.1216Z" fill="#121111"/>
</svg>
